HIERARCHY
ROOT Hips
{
  OFFSET 0 0.240689 0
  CHANNELS 6 Xposition Yposition Zposition Zrotation Xrotation Yrotation
  JOINT Bip01_Spine0
  {
    OFFSET 0 -24.7459 49.7988
    CHANNELS 6 Xposition Yposition Zposition Zrotation Xrotation Yrotation
    JOINT Bip01_Pelvis
    {
      OFFSET 0 0 0
      CHANNELS 6 Xposition Yposition Zposition Zrotation Xrotation Yrotation
      JOINT Bip01_Spine0_Tail
      {
        OFFSET -6.47486 -3.86022 0
        CHANNELS 6 Xposition Yposition Zposition Zrotation Xrotation Yrotation
        JOINT Bip01_Spine0_Tail1
        {
          OFFSET 10.3837 -0.00825882 0
          CHANNELS 6 Xposition Yposition Zposition Zrotation Xrotation Yrotation
          JOINT Bip01_Spine0_Tail2
          {
            OFFSET 10.3837 -0.00826263 0
            CHANNELS 6 Xposition Yposition Zposition Zrotation Xrotation Yrotation
            JOINT Bip01_Spine0_Tail3
            {
              OFFSET 10.3837 -0.00825882 0
              CHANNELS 6 Xposition Yposition Zposition Zrotation Xrotation Yrotation
              JOINT Bip01_Spine0_Tail4
              {
                OFFSET 10.3837 -0.00826263 0
                CHANNELS 6 Xposition Yposition Zposition Zrotation Xrotation Yrotation
                End Site
                {
                  OFFSET 0 0 0
                }
              }
            }
          }
        }
      }
      JOINT Bip01_R_Thigh
      {
        OFFSET 0 -1.52588e-005 -8.75617
        CHANNELS 6 Xposition Yposition Zposition Zrotation Xrotation Yrotation
        JOINT Bip01_R_Calf
        {
          OFFSET 19.7638 0 0
          CHANNELS 6 Xposition Yposition Zposition Zrotation Xrotation Yrotation
          JOINT Bip01_R_Foot
          {
            OFFSET 18.6534 0 0
            CHANNELS 6 Xposition Yposition Zposition Zrotation Xrotation Yrotation
            JOINT Bip01_R_Toe0
            {
              OFFSET 5.09145 13.9567 0
              CHANNELS 6 Xposition Yposition Zposition Zrotation Xrotation Yrotation
              JOINT Bip01_R_Toe01
              {
                OFFSET 4.28803 0 0
                CHANNELS 6 Xposition Yposition Zposition Zrotation Xrotation Yrotation
                JOINT Bip01_R_Toe02
                {
                  OFFSET 3.85801 0 0
                  CHANNELS 6 Xposition Yposition Zposition Zrotation Xrotation Yrotation
                  End Site
                  {
                    OFFSET 0 0 0
                  }
                }
              }
            }
          }
        }
      }
      JOINT Bip01_L_Thigh
      {
        OFFSET 0 1.52588e-005 8.75617
        CHANNELS 6 Xposition Yposition Zposition Zrotation Xrotation Yrotation
        JOINT Bip01_L_Calf
        {
          OFFSET 19.7638 0 0
          CHANNELS 6 Xposition Yposition Zposition Zrotation Xrotation Yrotation
          JOINT Bip01_L_Foot
          {
            OFFSET 18.6534 0 0
            CHANNELS 6 Xposition Yposition Zposition Zrotation Xrotation Yrotation
            JOINT Bip01_L_Toe0
            {
              OFFSET 5.09144 13.9567 0
              CHANNELS 6 Xposition Yposition Zposition Zrotation Xrotation Yrotation
              JOINT Bip01_L_Toe01
              {
                OFFSET 4.28802 0 0
                CHANNELS 6 Xposition Yposition Zposition Zrotation Xrotation Yrotation
                JOINT Bip01_L_Toe02
                {
                  OFFSET 3.85801 0 0
                  CHANNELS 6 Xposition Yposition Zposition Zrotation Xrotation Yrotation
                  End Site
                  {
                    OFFSET 0 0 0
                  }
                }
              }
            }
          }
        }
      }
      JOINT Bip01_Spine
      {
        OFFSET 9.14835 -0.00640869 -1.1e-005
        CHANNELS 6 Xposition Yposition Zposition Zrotation Xrotation Yrotation
        JOINT Bip01_Spine1
        {
          OFFSET 8.04366 -0.00638199 0
          CHANNELS 6 Xposition Yposition Zposition Zrotation Xrotation Yrotation
          JOINT Bip01_Spine2
          {
            OFFSET 8.04367 -0.00639343 0
            CHANNELS 6 Xposition Yposition Zposition Zrotation Xrotation Yrotation
            JOINT Bip01_Spine3
            {
              OFFSET 8.04304 -0.00831222 0
              CHANNELS 6 Xposition Yposition Zposition Zrotation Xrotation Yrotation
              JOINT Bip01_Neck
              {
                OFFSET 10.6685 1.06813 0
                CHANNELS 6 Xposition Yposition Zposition Zrotation Xrotation Yrotation
                JOINT Bip01_R_Clavicle
                {
                  OFFSET -3.21661 -4.89635 -9.04802
                  CHANNELS 6 Xposition Yposition Zposition Zrotation Xrotation Yrotation
                  JOINT Bip01_R_UpperArm
                  {
                    OFFSET 19.0492 0 0
                    CHANNELS 6 Xposition Yposition Zposition Zrotation Xrotation Yrotation
                    JOINT Bip01_R_Forearm
                    {
                      OFFSET 10.3706 0 0
                      CHANNELS 6 Xposition Yposition Zposition Zrotation Xrotation Yrotation
                      JOINT Bip01_R_Hand
                      {
                        OFFSET 22.8632 0 0
                        CHANNELS 6 Xposition Yposition Zposition Zrotation Xrotation Yrotation
                        JOINT Bip01_R_Finger0
                        {
                          OFFSET 6.48259 0.103651 0.504496
                          CHANNELS 6 Xposition Yposition Zposition Zrotation Xrotation Yrotation
                          JOINT Bip01_R_Finger01
                          {
                            OFFSET 3.66847 0 0
                            CHANNELS 6 Xposition Yposition Zposition Zrotation Xrotation Yrotation
                            End Site
                            {
                              OFFSET 0 0 0
                            }
                          }
                        }
                      }
                    }
                  }
                }
                JOINT Bip01_L_Clavicle
                {
                  OFFSET -3.21661 -4.89641 9.04797
                  CHANNELS 6 Xposition Yposition Zposition Zrotation Xrotation Yrotation
                  JOINT Bip01_L_UpperArm
                  {
                    OFFSET 19.0492 0 0
                    CHANNELS 6 Xposition Yposition Zposition Zrotation Xrotation Yrotation
                    JOINT Bip01_L_Forearm
                    {
                      OFFSET 10.3706 0 0
                      CHANNELS 6 Xposition Yposition Zposition Zrotation Xrotation Yrotation
                      JOINT Bip01_L_Hand
                      {
                        OFFSET 22.8631 0 0
                        CHANNELS 6 Xposition Yposition Zposition Zrotation Xrotation Yrotation
                        JOINT Bip01_L_Finger0
                        {
                          OFFSET 6.48257 0.103655 -0.504492
                          CHANNELS 6 Xposition Yposition Zposition Zrotation Xrotation Yrotation
                          JOINT Bip01_L_Finger01
                          {
                            OFFSET 3.66844 0 0
                            CHANNELS 6 Xposition Yposition Zposition Zrotation Xrotation Yrotation
                            End Site
                            {
                              OFFSET 0 0 0
                            }
                          }
                        }
                      }
                    }
                  }
                }
                JOINT Bip01_Neck1
                {
                  OFFSET 7.52459 -0.00656509 0
                  CHANNELS 6 Xposition Yposition Zposition Zrotation Xrotation Yrotation
                  JOINT Bip01_Neck2
                  {
                    OFFSET 8.4783 -0.00588226 0
                    CHANNELS 6 Xposition Yposition Zposition Zrotation Xrotation Yrotation
                    JOINT Bip01_Head
                    {
                      OFFSET 8.41606 0 0
                      CHANNELS 6 Xposition Yposition Zposition Zrotation Xrotation Yrotation
                      JOINT EyesBlue
                      {
                        OFFSET 0 0 0
                        CHANNELS 6 Xposition Yposition Zposition Zrotation Xrotation Yrotation
                        JOINT EyesBlue_2
                        {
                          OFFSET 0 -0.500007 0
                          CHANNELS 6 Xposition Yposition Zposition Zrotation Xrotation Yrotation
                          End Site
                          {
                            OFFSET 0 0 0
                          }
                        }
                      }
                      JOINT Bip01_Head2_Eyeleds
                      {
                        OFFSET 6.52751 7.61746 2.2e-005
                        CHANNELS 6 Xposition Yposition Zposition Zrotation Xrotation Yrotation
                        End Site
                        {
                          OFFSET 0 0 0
                        }
                      }
                      JOINT Bip01_Head_Muzzle
                      {
                        OFFSET 2.88628 13.9448 3.88994
                        CHANNELS 6 Xposition Yposition Zposition Zrotation Xrotation Yrotation
                        End Site
                        {
                          OFFSET 0 0 0
                        }
                      }
                      JOINT Bip01_Head1_Jaw
                      {
                        OFFSET 0.271065 1.32405 0
                        CHANNELS 6 Xposition Yposition Zposition Zrotation Xrotation Yrotation
                        JOINT _Bip01_Head11_TungeControler
                        {
                          OFFSET 4.61616 5.82872 0
                          CHANNELS 6 Xposition Yposition Zposition Zrotation Xrotation Yrotation
                          JOINT _Bip01_Ponytail3_tunge
                          {
                            OFFSET 5.17785 2.98805 0
                            CHANNELS 6 Xposition Yposition Zposition Zrotation Xrotation Yrotation
                            JOINT Bip01_Ponytail31
                            {
                              OFFSET 5.57569 0 0
                              CHANNELS 6 Xposition Yposition Zposition Zrotation Xrotation Yrotation
                              JOINT Bip01_Ponytail32
                              {
                                OFFSET 2.93165 0 0
                                CHANNELS 6 Xposition Yposition Zposition Zrotation Xrotation Yrotation
                                JOINT Bip01_Ponytail3Nub
                                {
                                  OFFSET 3.30155 0 0
                                  CHANNELS 6 Xposition Yposition Zposition Zrotation Xrotation Yrotation
                                  End Site
                                  {
                                    OFFSET 0 0 0
                                  }
                                }
                              }
                            }
                          }
                        }
                        JOINT Bip01_Head_JawNub
                        {
                          OFFSET 15.5776 -0.000389099 0
                          CHANNELS 6 Xposition Yposition Zposition Zrotation Xrotation Yrotation
                          End Site
                          {
                            OFFSET 0 0 0
                          }
                        }
                      }
                      JOINT Bip01_Ponytail2
                      {
                        OFFSET 9.40334 1.03973 -6.51764
                        CHANNELS 6 Xposition Yposition Zposition Zrotation Xrotation Yrotation
                        JOINT Bip01_Ponytail21
                        {
                          OFFSET 2.77018 -0.00640106 1.33514e-005
                          CHANNELS 6 Xposition Yposition Zposition Zrotation Xrotation Yrotation
                          End Site
                          {
                            OFFSET 0 0 0
                          }
                        }
                      }
                      JOINT Bip01_Ponytail1
                      {
                        OFFSET 9.40368 1.03969 6.51768
                        CHANNELS 6 Xposition Yposition Zposition Zrotation Xrotation Yrotation
                        JOINT Bip01_Ponytail11
                        {
                          OFFSET 2.77018 -0.00640487 0
                          CHANNELS 6 Xposition Yposition Zposition Zrotation Xrotation Yrotation
                          End Site
                          {
                            OFFSET 0 0 0
                          }
                        }
                      }
                    }
                  }
                }
              }
            }
          }
        }
      }
    }
  }
}
MOTION
Frames:	4
Frame Time:	0.0333333
0 0 -1e-006 -0 -90 -0 -0.262124 -24.8773 50.4629 90.0006 -0.000267242 89.398 0 0 0 -90 0.000197538 -79.186 -6.36445 -3.85807 -1.21584 174.328 0.060134 -17.1693 10.3855 -0.007816 0.000112 10.8131 1.18643 -28.2601 10.3893 -0.005584 0.000125 41.0725 1.18565 -28.2612 10.3903 -0.004207 7.60001e-005 53.7035 1.18743 -28.2606 10.3893 -0.005676 0.000358 44.3874 1.90118 -28.023 9e-006 -1.9e-005 -8.75617 -102.916 2.98033 176.467 19.7638 1e-006 5.32907e-015 -65.7117 0.000409407 0.00306417 18.6534 -3e-006 5.86198e-014 -28.8476 1.81989 7.49414 5.09144 13.9567 -3.70145e-007 114.82 3.09951 1.66849 4.288 -1.42109e-014 1e-006 53.6716 8.4327 1.28951 3.85799 -1.82077e-014 1e-006 -45 -6.73438e-006 9.37325e-006 -1.5e-005 1.1e-005 8.75617 -107.858 9.49866 -174.238 19.7638 1e-006 0 -63.6034 0.000331482 0.00141347 18.6534 3e-006 0 -24.8326 1.34971 -5.93796 5.09143 13.9567 8.06535e-007 115 0.000721912 4.99922 4.288 1e-006 2.4869e-014 51.474 -6.02996 0.263548 3.85799 -2.25064e-012 -2e-006 -45 -5.73482e-005 -5.69037e-005 8.98601 -0.006252 1.71646 0.57123 0.0650036 -2.35957 8.04366 -0.006404 -9.54792e-015 0.518479 -0.0958784 -5.17372 8.04367 -0.006401 -8.21565e-015 0.518479 -0.0958784 -5.17372 8.04304 -0.008323 4.88498e-015 -3.79449 -0.002143 -5.1746 10.6675 1.06848 -6e-006 -22.804 0.0844372 0.0216115 -2.35787 -5.37425 -9.041 -157.398 -85.3325 114.841 19.0491 4.44089e-014 -3e-006 93.9651 5.37114 -109.137 10.3706 1.42109e-014 8.88179e-016 -61.8334 0.000424709 0.00148054 22.8631 -1.06581e-014 4.88498e-015 -16.8966 0.509271 1.2142 6.48256 0.103653 0.504496 -78.3102 -0.30001 -15.4938 3.66843 4.88498e-015 3.55272e-015 34.6071 2.23331e-005 5.8681e-006 -2.3642 -5.34781 9.05476 -157.074 85.5018 -115.166 19.0492 -1e-006 7e-006 81.7552 -9.06248 92.1969 10.3706 -7.10542e-015 -3.55271e-015 -64.8175 0.00035369 0.00177458 22.8631 -3e-006 -2.30926e-014 -11.5716 -9.51028 -4.7583 6.48256 0.103655 -0.504496 -75.9415 0.955262 15.4679 3.66843 9.99999e-007 -3e-006 40.107 2.69431e-006 -2.81445e-006 7.5255 -0.006618 4.90002e-005 -5.05958 0.00151447 0.0016612 8.47675 -0.006359 0.000115 15.0471 0.00167849 -0.000258999 8.41604 1.42109e-014 -6.21725e-015 -78.7339 -7.06212 -0.500416 -3e-006 3e-006 -3e-006 -23.1098 1.37701e-015 90 8.77028e-008 -0.500011 9.50584e-006 -128.399 90 -141.601 0 0 0 -113.549 1.52588e-005 -180 2.8863 13.9448 3.88993 -22.9892 1.37021e-015 90 0 0 0 -80.1135 0.00204468 180 0 0 0 -102.319 0.000195047 -0.00252655 0 0 0 113.246 1.46959 -3.96137 0 0 0 0.295054 0.00135034 0.00145129 0 0 0 -24.3919 0.00128895 0.00232397 0 0 0 -26.1943 7.35406e-006 6.73856e-006 15.5776 -0.000396 -7.00014e-006 -7.95139e-016 -2.42657e-019 1.94126e-019 9.40308 1.03982 -6.51736 -19.2085 11.2869 20.5338 2.77015 -0.006393 4.99883e-006 2.43523 0.00173299 0.00166033 9.40353 1.03972 6.51745 -19.2081 -11.2844 -20.5312 2.77018 -0.006393 1.10015e-005 2.43572 0.000800617 0.000767962 
0 0 -1e-006 -0 -90 -0 -0.262124 -24.9154 50.4629 90.0007 4.44235e-006 89.2235 0 0 0 -90.0003 0.000933424 -84.0487 -6.41496 -3.85807 -0.668875 167.853 -0.0259146 -9.68394 10.3855 -0.007816 0.000112 4.00067 0.730458 -15.7514 10.3893 -0.005584 0.000125 34.2607 0.729791 -15.7522 10.3903 -0.004207 7.59995e-005 46.8918 0.731655 -15.7517 10.3893 -0.005676 0.000358 36.1526 1.42937 -16.0024 9e-006 -1.9e-005 -8.75617 -100.868 -1.9118 175.569 19.7638 1e-006 -1.77636e-015 -64.3338 0.000483026 0.00305345 18.6534 -3e-006 4.44089e-014 -28.4054 1.76222 7.5248 5.09144 13.9567 -5.05228e-007 114.82 3.09951 1.66849 4.288 -1.06581e-014 1e-006 53.6716 8.4327 1.28951 3.85799 -1.64313e-014 1e-006 -45 -6.23804e-006 9.81116e-006 -1.5e-005 1.1e-005 8.75617 -108.403 4.91222 -175.864 19.7638 1e-006 1.77636e-015 -63.6034 0.000331482 0.00141347 18.6534 3e-006 -5.32907e-015 -25.0377 1.30802 -5.79894 5.09143 13.9567 7.62695e-007 115 0.000722043 4.99922 4.288 1e-006 2.13163e-014 51.474 -6.02996 0.263548 3.85799 -2.10942e-012 -2e-006 -45 -5.45045e-005 -5.41489e-005 9.05861 -0.006252 0.94435 0.597523 0.0782842 -0.977575 8.04366 -0.006404 -1.16573e-014 0.548418 -0.0779823 -3.0457 8.04367 -0.006401 -2.18714e-014 0.548418 -0.0779823 -3.0457 8.04304 -0.008323 5.41789e-014 -3.78417 0.000774831 -3.04647 10.6675 1.06848 -6e-006 -22.9703 0.0845122 0.0215295 -2.34229 -5.38105 -9.041 -157.238 -85.3324 114.836 19.0491 3.19744e-014 -3e-006 92.2989 6.86377 -107.006 10.3706 -3.55271e-015 -3.55271e-015 -61.6413 0.000429774 0.00147881 22.8631 -7.10543e-015 -6.21725e-015 -16.1375 0.175631 1.69536 6.48256 0.103653 0.504496 -78.3102 -0.300011 -15.4938 3.66843 -8.88178e-016 3.55272e-015 34.6071 2.37996e-005 5.26258e-006 -2.34863 -5.35462 9.05476 -156.906 85.5018 -115.169 19.0492 -1e-006 7e-006 83.7086 -9.24869 94.428 10.3706 1.95399e-014 -3.55271e-015 -63.4102 0.000397226 0.00176511 22.8631 -3e-006 -1.77636e-014 -12.99 -9.798 -4.44491 6.48256 0.103655 -0.504496 -75.9415 0.95526 15.4679 3.66843 9.99999e-007 -3e-006 40.107 3.89739e-006 -3.64573e-006 7.5255 -0.006618 4.90001e-005 -5.22557 0.00150991 0.00166563 8.47675 -0.006359 0.000115 14.8813 0.0016775 -0.000254222 8.41604 7.10543e-015 -5.32907e-015 -78.3207 -4.16579 -0.328691 -3e-006 3e-006 -3e-006 -23.1098 1.37701e-015 90 9.2947e-008 -0.500011 9.50524e-006 -128.714 90 -141.286 0 0 0 -113.549 1.52588e-005 -180 2.8863 13.9448 3.88993 -22.9892 1.37021e-015 90 0 0 0 -79.5607 0.00202942 180 0 0 0 -100.416 0.000113532 -0.00254056 0 0 0 111.088 1.62328 -4.3815 0 0 0 0.565093 0.00135907 0.00144486 0 0 0 -24.5913 0.00128989 0.00233177 0 0 0 -26.1943 6.44062e-006 5.91598e-006 15.5776 -0.000396 -7.00008e-006 1.59028e-015 4.12517e-019 7.76503e-019 9.40308 1.03982 -6.51736 -19.2398 9.55983 20.5875 2.77015 -0.006393 4.99883e-006 2.43523 0.001733 0.00166032 9.40353 1.03972 6.51745 -19.239 -9.55736 -20.5851 2.77018 -0.006393 1.10014e-005 2.43572 0.000800629 0.000767918 
0 0 -1e-006 -0 -90 -0 -0.262124 -24.9537 50.4629 90.0008 0.000494465 89.0482 0 0 0 -90.0006 0.00030431 -88.9659 -6.46507 -3.85807 -0.115793 161.432 -0.12035 -2.12408 10.3855 -0.007816 0.000112 -2.55163 0.15535 -3.11759 10.3893 -0.005584 0.000125 27.7089 0.154823 -3.11808 10.3903 -0.004207 7.59973e-005 40.3401 0.156683 -3.11783 10.3893 -0.005676 0.000358 28.1817 0.791 -3.87036 9e-006 -1.9e-005 -8.75617 -98.9535 -6.84617 174.63 19.7638 1e-006 -1.77636e-015 -62.9371 0.000557359 0.00304079 18.6534 -3e-006 4.44089e-014 -27.9604 1.70207 7.55709 5.09144 13.9567 -6.43046e-007 114.82 3.09951 1.66849 4.288 -1.42109e-014 1e-006 53.6716 8.4327 1.28951 3.85799 -2.17604e-014 1e-006 -45 -5.72456e-006 1.02662e-005 -1.5e-005 1.1e-005 8.75617 -109.214 0.252163 -177.459 19.7638 1e-006 8.88178e-015 -63.6034 0.000331482 0.00141347 18.6534 3e-006 -1.77636e-015 -25.2468 1.26563 -5.6599 5.09143 13.9567 7.15634e-007 115 0.000722186 4.99922 4.288 1e-006 1.77636e-014 51.474 -6.02996 0.263548 3.85799 -1.95399e-012 -2e-006 -45 -5.10378e-005 -5.07922e-005 9.13065 -0.006252 0.163604 0.623166 0.0930392 0.420045 8.04366 -0.006404 -9.74221e-015 0.577102 -0.0577434 -0.893908 8.04367 -0.006401 2.58821e-014 0.577102 -0.0577434 -0.893908 8.04304 -0.008323 1.49741e-014 -3.7793 0.00266527 -0.89452 10.6675 1.06848 -6e-006 -23.1374 0.0845881 0.0214492 -2.32664 -5.38788 -9.041 -157.076 -85.3322 114.83 19.0491 3.55271e-014 -3e-006 90.4993 7.98368 -104.762 10.3706 5.32907e-015 -1.77636e-015 -61.4515 0.000434765 0.00147707 22.8631 3.55271e-015 -2.22045e-015 -15.3608 -0.161103 2.1817 6.48256 0.103653 0.504496 -78.3102 -0.300011 -15.4938 3.66843 1.9984e-014 -1.77636e-015 34.6071 2.47766e-005 4.87796e-006 -2.333 -5.36145 9.05476 -156.736 85.5018 -115.172 19.0492 -1e-006 7e-006 85.6707 -8.87495 96.8339 10.3706 -5.32907e-015 -2.66454e-015 -61.991 0.000440888 0.00175451 22.8631 -3e-006 -1.42109e-014 -14.4175 -10.0894 -4.12711 6.48256 0.103655 -0.504496 -75.9415 0.95526 15.4679 3.66843 9.99999e-007 -3e-006 40.107 4.25937e-006 -3.78305e-006 7.5255 -0.006618 4.9e-005 -5.39229 0.00150537 0.00167007 8.47675 -0.006359 0.000115 14.7148 0.00167622 -0.000249421 8.41604 7.10543e-015 5.55112e-016 -77.9225 -1.23695 -0.157055 -3e-006 3e-006 -3e-006 -23.1098 1.37701e-015 90 9.8342e-008 -0.500011 9.50493e-006 180 90 -90 0 0 0 -113.549 1.52588e-005 -180 2.8863 13.9448 3.88993 -22.9892 1.37021e-015 90 0 0 0 -79.006 0.00201416 180 0 0 0 -98.5072 3.08908e-005 -0.00255102 0 0 0 108.926 1.77726 -4.80318 0 0 0 0.840349 0.00136845 0.00143817 0 0 0 -24.7898 0.00129045 0.00233943 0 0 0 -26.1943 5.58836e-006 5.11603e-006 15.5776 -0.000396 -7.00002e-006 1.59028e-015 3.88251e-019 -0 9.40308 1.03982 -6.51736 -19.2675 7.82773 20.6604 2.77015 -0.006393 4.99883e-006 2.43523 0.001733 0.00166032 9.40353 1.03972 6.51745 -19.2662 -7.82526 -20.658 2.77018 -0.006393 1.10012e-005 2.43572 0.000800641 0.000767866 
0 0 -1e-006 -0 -90 -0 -0.262124 -24.9705 50.4629 90.0004 0.000633804 88.9709 0 0 0 -90.0007 -0.000578661 -94.4117 -6.42612 -3.85807 0.496339 164.549 -0.609055 5.33021 10.3855 -0.007816 0.000112 0.27501 -1.36543 9.79782 10.3893 -0.005584 0.000125 30.5355 -1.36532 9.79743 10.3903 -0.004207 7.6001e-005 43.1667 -1.364 9.79752 10.3893 -0.005676 0.000358 30.2511 -1.95552 7.96883 9e-006 -1.9e-005 -8.75617 -96.7483 -12.3212 174.204 19.7638 1e-006 0 -61.0618 0.000656621 0.00302096 18.6534 -3e-006 5.15143e-014 -27.6801 1.45306 7.71931 5.09144 13.9567 -8.01748e-007 114.82 3.09951 1.66849 4.288 -1.77636e-014 1e-006 53.6716 8.4327 1.28951 3.85799 -3.24185e-014 1e-006 -45 -5.11519e-006 1.08246e-005 -1.5e-005 1.1e-005 8.75617 -110.255 -4.907 -179.36 19.7638 1e-006 -1.77636e-015 -63.6034 0.000331482 0.00141347 18.6534 3e-006 -1.77636e-015 -25.6426 1.31686 -5.67599 5.09143 13.9567 6.92326e-007 115 0.000722254 4.99922 4.288 1e-006 2.13163e-014 51.474 -6.02997 0.263548 3.85799 -1.803e-012 -2e-006 -45 -4.84684e-005 -4.83083e-005 9.07504 -0.006252 -0.700538 0.624119 0.110082 1.9785 8.04366 -0.006404 1.29896e-014 0.584028 -0.0336007 1.48575 8.04367 -0.006401 6.83897e-014 0.584028 -0.0336007 1.48575 8.04304 -0.008323 -4.81837e-014 -3.78025 0.00382283 1.48563 10.6675 1.06848 -6e-006 -23.2108 0.0845922 0.0214823 -2.31974 -5.39086 -9.041 -157.002 -85.3321 114.83 19.0491 1.59872e-014 -3e-006 88.4255 9.43673 -102.274 10.3706 -7.10543e-015 -1.77636e-015 -61.6803 0.000429014 0.00147846 22.8631 2.84217e-014 -3.9968e-015 -14.1436 -0.485895 2.69583 6.48256 0.103653 0.504496 -78.3102 -0.300013 -15.4938 3.66843 2.62013e-014 -1.77636e-015 34.6071 2.6565e-005 4.13033e-006 -2.32611 -5.36446 9.05476 -156.662 85.5017 -115.172 19.0492 -1e-006 7e-006 87.875 -8.80127 99.2881 10.3706 -1.24345e-014 -6.21725e-015 -60.7953 0.00047745 0.00174465 22.8631 -3e-006 -5.32907e-015 -15.6406 -10.4642 -3.72844 6.48256 0.103655 -0.504496 -75.9415 0.955259 15.4679 3.66843 9.99999e-007 -3e-006 40.107 5.57962e-006 -4.67919e-006 7.5255 -0.006618 4.9e-005 -5.46557 0.0015036 0.00167205 8.47675 -0.006359 0.000115 14.6416 0.00167443 -0.000247352 8.41604 0 1.55431e-015 -77.7074 2.00226 0.0437403 -3e-006 3e-006 -3e-006 -23.1098 1.37701e-015 90 1.04334e-007 -0.500011 9.5049e-006 180 90 -90 0 0 0 -113.549 1.52588e-005 -180 2.8863 13.9448 3.88993 -22.9892 1.37021e-015 90 0 0 0 -78.8149 0.00201416 180 0 0 0 -97.8507 3.72626e-006 -0.00255935 0 0 0 108.182 1.83144 -4.94771 0 0 0 1.3622 0.00138452 0.00142543 0 0 0 -24.6955 0.00129988 0.00233892 0 0 0 -26.1943 4.86707e-006 4.225e-006 15.5776 -0.000396 -6.99997e-006 2.38542e-015 -9.70628e-020 -0 9.40308 1.03982 -6.51736 -19.2794 7.06355 20.6857 2.77015 -0.006393 4.99877e-006 2.43523 0.00173301 0.0016603 9.40353 1.03972 6.51745 -19.2784 -7.06137 -20.6836 2.77018 -0.006393 1.10011e-005 2.43572 0.000800655 0.000767821 
